<?xml version="1.0" encoding="utf-8"?>
<!-- Generator: Adobe Illustrator 25.2.1, SVG Export Plug-In . SVG Version: 6.00 Build 0)  -->
<svg version="1.1" id="Слой_1" xmlns="http://www.w3.org/2000/svg" xmlns:xlink="http://www.w3.org/1999/xlink" x="0px" y="0px"
	 viewBox="0 0 50 50" style="enable-background:new 0 0 50 50;" xml:space="preserve">
<style type="text/css">
	.st0{fill:url(#SVGID_1_);}
</style>
<linearGradient id="SVGID_1_" gradientUnits="userSpaceOnUse" x1="25" y1="48" x2="25" y2="-6.728314e-06">
	<stop  offset="1.198083e-07" style="stop-color:#45145A"/>
	<stop  offset="1" style="stop-color:#FF5300"/>
</linearGradient>
<path class="st0" d="M12,0c-1.1,0-2,0.9-2,2v2H4C3.5,4,2.9,4.2,2.6,4.6C2.2,4.9,2,5.5,2,6v40c0,0.5,0.2,1.1,0.6,1.4
	C2.9,47.8,3.5,48,4,48h42c0.5,0,1.1-0.2,1.4-0.6c0.4-0.4,0.6-0.9,0.6-1.4V6c0-0.5-0.2-1.1-0.6-1.4C47.1,4.2,46.5,4,46,4h-6V2
	c0-1.1-0.9-2-2-2h-2c-1.1,0-2,0.9-2,2v2H16V2c0-1.1-0.9-2-2-2H12z M12,2h2v6h-2V2z M36,2h2v6h-2V2z M4,6h6v2c0,1.1,0.9,2,2,2h2
	c1.1,0,2-0.9,2-2V6h18v2c0,1.1,0.9,2,2,2h2c1.1,0,2-0.9,2-2V6h6v7H4V6z M4,15h42v31H4V15z M10,19v23h30V19H10z M12,21h5v5h-5V21z
	 M19,21h5v5h-5V21z M26,21h5v5h-5V21z M33,21h5v5h-5V21z M12,28h5v5h-5V28z M19,28h5v5h-5V28z M26,28h5v5h-5V28z M33,28h5v5h-5V28z
	 M12,35h5v5h-5V35z M19,35h5v5h-5V35z M26,35h5v5h-5V35z M33,35h5v5h-5V35z"/>
</svg>
