<?xml version="1.0" encoding="utf-8"?>
<!-- Generator: Adobe Illustrator 25.2.1, SVG Export Plug-In . SVG Version: 6.00 Build 0)  -->
<svg version="1.1" id="Слой_1" xmlns="http://www.w3.org/2000/svg" xmlns:xlink="http://www.w3.org/1999/xlink" x="0px" y="0px"
	 viewBox="0 0 198.6 62.7" style="enable-background:new 0 0 198.6 62.7;" xml:space="preserve">
<style type="text/css">
	.st0{fill:none;}
	.st1{fill:#13447E;}
	.st2{fill:#EE7F1A;}
</style>
<rect x="70.5" y="5.9" class="st0" width="111.3" height="51.6"/>
<g>
	<path class="st1" d="M72.1,9l-2.3,3.8h-2.4l2.8-4.4c-0.6-0.2-1-0.6-1.3-1.1s-0.5-1-0.5-1.7c0-0.9,0.3-1.6,1-2.1
		c0.6-0.5,1.6-0.7,2.8-0.7h3.3v10h-2.1V9H72.1z M73.5,4.5h-1c-0.5,0-1,0.1-1.3,0.3s-0.5,0.5-0.5,1c0,0.4,0.1,0.8,0.4,1
		s0.7,0.4,1.3,0.4h1V4.5z"/>
	<path class="st1" d="M82.1,12.9c-0.9,0-1.6-0.3-2.1-1h-0.1c0.1,0.6,0.1,1,0.1,1.1v3.1h-2.1v-11h1.7l0.3,1h0.1
		C80.4,5.4,81.1,5,82.1,5c0.9,0,1.6,0.3,2.1,1S85,7.7,85,9c0,0.8-0.1,1.5-0.4,2.1c-0.2,0.6-0.6,1.1-1,1.4S82.6,12.9,82.1,12.9z
		 M81.4,6.7c-0.5,0-0.9,0.2-1.1,0.5S79.9,8,79.9,8.7v0.2c0,0.8,0.1,1.4,0.4,1.8c0.2,0.4,0.6,0.5,1.2,0.5c0.9,0,1.4-0.8,1.4-2.3
		c0-0.8-0.1-1.3-0.3-1.7C82.3,6.9,81.9,6.7,81.4,6.7z"/>
	<path class="st1" d="M93.6,9c0,1.2-0.3,2.2-1,2.9s-1.6,1.1-2.7,1.1c-0.7,0-1.4-0.2-1.9-0.5s-1-0.8-1.3-1.4S86.2,9.8,86.2,9
		c0-1.2,0.3-2.2,1-2.9s1.6-1,2.7-1c0.7,0,1.4,0.2,1.9,0.5s1,0.8,1.3,1.4S93.6,8.2,93.6,9z M88.3,9c0,0.8,0.1,1.3,0.4,1.7
		c0.2,0.4,0.7,0.6,1.2,0.6c0.6,0,1-0.2,1.2-0.6c0.2-0.4,0.4-1,0.4-1.7c0-0.8-0.1-1.3-0.4-1.7s-0.6-0.6-1.2-0.6c-0.6,0-1,0.2-1.2,0.6
		S88.3,8.2,88.3,9z"/>
	<path class="st1" d="M98.3,12.9c-2.4,0-3.6-1.3-3.6-3.9c0-1.3,0.3-2.3,1-3s1.6-1,2.8-1c0.9,0,1.7,0.2,2.4,0.5l-0.6,1.6
		C100,7,99.7,6.9,99.4,6.8s-0.6-0.1-0.8-0.1c-1.1,0-1.6,0.8-1.6,2.3c0,1.5,0.5,2.2,1.6,2.2c0.4,0,0.8-0.1,1.1-0.2s0.7-0.3,1-0.5v1.8
		c-0.3,0.2-0.7,0.4-1,0.4C99.3,12.9,98.9,12.9,98.3,12.9z"/>
	<path class="st1" d="M109.2,12.8h-2.1V6.7h-1.9c-0.1,1.7-0.3,3-0.5,3.8s-0.5,1.4-0.8,1.8c-0.3,0.4-0.8,0.6-1.4,0.6
		c-0.5,0-0.9-0.1-1.2-0.2V11c0.2,0.1,0.4,0.1,0.7,0.1c0.3,0,0.5-0.2,0.7-0.6c0.2-0.4,0.3-1,0.5-1.9c0.1-0.9,0.3-2.1,0.4-3.6h5.8
		V12.8z"/>
	<path class="st1" d="M116.2,12.8l-0.4-1h-0.1c-0.4,0.4-0.7,0.7-1.1,0.9c-0.4,0.2-0.9,0.3-1.5,0.3c-0.7,0-1.3-0.2-1.7-0.6
		c-0.4-0.4-0.6-1-0.6-1.8c0-0.8,0.3-1.4,0.9-1.8c0.6-0.4,1.4-0.6,2.6-0.6l1.3,0V7.7c0-0.8-0.4-1.2-1.2-1.2c-0.6,0-1.3,0.2-2.2,0.6
		l-0.7-1.4c0.9-0.5,1.9-0.7,2.9-0.7c1,0,1.8,0.2,2.4,0.7s0.8,1.1,0.8,2v5.1H116.2z M115.6,9.3l-0.8,0c-0.6,0-1.1,0.1-1.4,0.3
		s-0.4,0.5-0.4,0.9c0,0.6,0.3,0.9,1,0.9c0.5,0,0.9-0.1,1.2-0.4c0.3-0.3,0.4-0.6,0.4-1.1V9.3z"/>
	<path class="st1" d="M126.8,7.2c0,0.4-0.1,0.8-0.4,1c-0.3,0.3-0.6,0.5-1.1,0.6v0.1c0.5,0.1,1,0.2,1.3,0.6c0.3,0.3,0.5,0.7,0.5,1.1
		c0,0.7-0.3,1.3-0.9,1.7s-1.4,0.6-2.5,0.6h-3.9V5.2h3.9c1,0,1.8,0.2,2.4,0.5C126.5,6,126.8,6.5,126.8,7.2z M124.7,7.3
		c0-0.5-0.4-0.7-1.1-0.7h-1.8v1.5h1.5c0.4,0,0.8-0.1,1-0.2S124.7,7.6,124.7,7.3z M124.9,10.4c0-0.3-0.1-0.5-0.3-0.7s-0.6-0.2-1-0.2
		h-1.7v1.8h1.7c0.4,0,0.8-0.1,1-0.2C124.7,10.9,124.9,10.7,124.9,10.4z"/>
	<path class="st1" d="M131.7,12.9c-2.4,0-3.6-1.3-3.6-3.9c0-1.3,0.3-2.3,1-3s1.6-1,2.8-1c0.9,0,1.7,0.2,2.4,0.5l-0.6,1.6
		c-0.3-0.1-0.6-0.2-0.9-0.3s-0.6-0.1-0.8-0.1c-1.1,0-1.6,0.8-1.6,2.3c0,1.5,0.5,2.2,1.6,2.2c0.4,0,0.8-0.1,1.1-0.2s0.7-0.3,1-0.5
		v1.8c-0.3,0.2-0.7,0.4-1,0.4C132.7,12.9,132.2,12.9,131.7,12.9z"/>
	<path class="st1" d="M140.7,5.2h2.3l-3,3.7l3.3,4h-2.4l-3.1-3.9v3.9h-2.1V5.2h2.1v3.7L140.7,5.2z"/>
	<path class="st1" d="M146.3,5.2v3c0,0.3-0.1,1.1-0.2,2.3l3.5-5.4h2.5v7.6h-2v-3c0-0.5,0-1.3,0.1-2.3l-3.5,5.3h-2.5V5.2H146.3z"/>
	<path class="st1" d="M156.4,5.2v3c0,0.3-0.1,1.1-0.2,2.3l3.5-5.4h2.5v7.6h-2v-3c0-0.5,0-1.3,0.1-2.3l-3.5,5.3h-2.5V5.2H156.4z
		 M161.6,1.9c-0.1,0.9-0.4,1.5-1,1.9s-1.4,0.6-2.4,0.6c-1.1,0-1.9-0.2-2.4-0.6c-0.5-0.4-0.8-1-0.9-1.9h1.9c0,0.5,0.1,0.8,0.4,1
		c0.2,0.2,0.6,0.3,1.1,0.3c0.5,0,0.8-0.1,1-0.3c0.2-0.2,0.4-0.5,0.4-1H161.6z"/>
	<path class="st1" d="M75.1,17.8v1.8h-4.2v8.2h-2.1v-10H75.1z"/>
	<path class="st1" d="M83.3,24c0,1.2-0.3,2.2-1,2.9s-1.6,1.1-2.7,1.1c-0.7,0-1.4-0.2-1.9-0.5s-1-0.8-1.3-1.4s-0.5-1.3-0.5-2.1
		c0-1.2,0.3-2.2,1-2.9s1.6-1,2.7-1c0.7,0,1.4,0.2,1.9,0.5s1,0.8,1.3,1.4S83.3,23.2,83.3,24z M78.1,24c0,0.8,0.1,1.3,0.4,1.7
		c0.2,0.4,0.7,0.6,1.2,0.6c0.6,0,1-0.2,1.2-0.6c0.2-0.4,0.4-1,0.4-1.7c0-0.8-0.1-1.3-0.4-1.7s-0.6-0.6-1.2-0.6c-0.6,0-1,0.2-1.2,0.6
		S78.1,23.2,78.1,24z"/>
	<path class="st1" d="M88.1,27.9c-2.4,0-3.6-1.3-3.6-3.9c0-1.3,0.3-2.3,1-3s1.6-1,2.8-1c0.9,0,1.7,0.2,2.4,0.5L90,22.1
		c-0.3-0.1-0.6-0.2-0.9-0.3s-0.6-0.1-0.8-0.1c-1.1,0-1.6,0.8-1.6,2.3c0,1.5,0.5,2.2,1.6,2.2c0.4,0,0.8-0.1,1.1-0.2s0.7-0.3,1-0.5
		v1.8c-0.3,0.2-0.7,0.4-1,0.4C89.1,27.9,88.6,27.9,88.1,27.9z"/>
	<path class="st1" d="M91,20.2h2.3l1.4,4.3c0.1,0.4,0.2,0.8,0.3,1.3h0c0-0.5,0.1-0.9,0.3-1.3l1.4-4.3H99l-3.2,8.6
		c-0.3,0.8-0.7,1.4-1.3,1.8c-0.5,0.4-1.2,0.6-1.9,0.6c-0.4,0-0.7,0-1.1-0.1v-1.7c0.3,0.1,0.5,0.1,0.8,0.1c0.4,0,0.7-0.1,1-0.3
		c0.3-0.2,0.5-0.6,0.6-1l0.1-0.4L91,20.2z"/>
	<path class="st1" d="M108,30.5h-1.9v-2.7H101v2.7h-1.9v-4.3h0.6c0.4-0.7,0.8-1.5,1.1-2.6s0.5-2.2,0.6-3.5h5.4v6.1h1.1V30.5z
		 M104.8,26.3v-4.6h-1.6c-0.1,0.8-0.3,1.7-0.5,2.4c-0.2,0.8-0.5,1.5-0.8,2.1H104.8z"/>
	<path class="st1" d="M114.1,27.8l-0.4-1h-0.1c-0.4,0.4-0.7,0.7-1.1,0.9c-0.4,0.2-0.9,0.3-1.5,0.3c-0.7,0-1.3-0.2-1.7-0.6
		c-0.4-0.4-0.6-1-0.6-1.8c0-0.8,0.3-1.4,0.9-1.8c0.6-0.4,1.4-0.6,2.6-0.6l1.3,0v-0.3c0-0.8-0.4-1.2-1.2-1.2c-0.6,0-1.3,0.2-2.2,0.6
		l-0.7-1.4c0.9-0.5,1.9-0.7,2.9-0.7c1,0,1.8,0.2,2.4,0.7s0.8,1.1,0.8,2v5.1H114.1z M113.5,24.3l-0.8,0c-0.6,0-1.1,0.1-1.4,0.3
		s-0.4,0.5-0.4,0.9c0,0.6,0.3,0.9,1,0.9c0.5,0,0.9-0.1,1.2-0.4c0.3-0.3,0.4-0.6,0.4-1.1V24.3z"/>
	<path class="st1" d="M121.8,27.9c-0.9,0-1.6-0.3-2.1-1h-0.1c0.1,0.6,0.1,1,0.1,1.1v3.1h-2.1v-11h1.7l0.3,1h0.1
		c0.5-0.8,1.2-1.1,2.2-1.1c0.9,0,1.6,0.3,2.1,1s0.8,1.7,0.8,2.9c0,0.8-0.1,1.5-0.4,2.1c-0.2,0.6-0.6,1.1-1,1.4
		S122.4,27.9,121.8,27.9z M121.2,21.7c-0.5,0-0.9,0.2-1.1,0.5s-0.4,0.8-0.4,1.6v0.2c0,0.8,0.1,1.4,0.4,1.8c0.2,0.4,0.6,0.5,1.2,0.5
		c0.9,0,1.4-0.8,1.4-2.3c0-0.8-0.1-1.3-0.3-1.7C122.1,21.9,121.7,21.7,121.2,21.7z"/>
	<path class="st1" d="M129.5,27.9c-2.4,0-3.6-1.3-3.6-3.9c0-1.3,0.3-2.3,1-3s1.6-1,2.8-1c0.9,0,1.7,0.2,2.4,0.5l-0.6,1.6
		c-0.3-0.1-0.6-0.2-0.9-0.3s-0.6-0.1-0.8-0.1c-1.1,0-1.6,0.8-1.6,2.3c0,1.5,0.5,2.2,1.6,2.2c0.4,0,0.8-0.1,1.1-0.2s0.7-0.3,1-0.5
		v1.8c-0.3,0.2-0.7,0.4-1,0.4C130.5,27.9,130,27.9,129.5,27.9z"/>
	<path class="st1" d="M139.9,20.2v1.6h-2.5v6.1h-2.1v-6.1h-2.5v-1.6H139.9z"/>
	<path class="st1" d="M148.3,22.2c0,0.4-0.1,0.8-0.4,1c-0.3,0.3-0.6,0.5-1.1,0.6v0.1c0.5,0.1,1,0.2,1.3,0.6c0.3,0.3,0.5,0.7,0.5,1.1
		c0,0.7-0.3,1.3-0.9,1.7s-1.4,0.6-2.5,0.6h-3.9v-7.6h3.9c1,0,1.8,0.2,2.4,0.5C148,21,148.3,21.5,148.3,22.2z M146.2,22.3
		c0-0.5-0.4-0.7-1.1-0.7h-1.8v1.5h1.5c0.4,0,0.8-0.1,1-0.2S146.2,22.6,146.2,22.3z M146.4,25.4c0-0.3-0.1-0.5-0.3-0.7
		s-0.6-0.2-1-0.2h-1.7v1.8h1.7c0.4,0,0.8-0.1,1-0.2C146.2,25.9,146.4,25.7,146.4,25.4z"/>
	<path class="st1" d="M153.6,27.9c-1.2,0-2.2-0.3-2.9-1s-1-1.6-1-2.9c0-1.3,0.3-2.3,1-3c0.6-0.7,1.5-1,2.7-1c1.1,0,1.9,0.3,2.5,0.9
		s0.9,1.5,0.9,2.5v1h-4.9c0,0.6,0.2,1.1,0.5,1.4s0.8,0.5,1.4,0.5c0.5,0,0.9,0,1.3-0.1s0.8-0.2,1.3-0.5v1.6c-0.4,0.2-0.8,0.3-1.2,0.4
		S154.2,27.9,153.6,27.9z M153.3,21.5c-0.4,0-0.8,0.1-1,0.4s-0.4,0.7-0.4,1.2h2.9c0-0.5-0.1-0.9-0.4-1.2S153.7,21.5,153.3,21.5z"/>
	<path class="st1" d="M160.4,20.2v2.9h2.9v-2.9h2.1v7.6h-2.1v-3.2h-2.9v3.2h-2.1v-7.6H160.4z"/>
	<path class="st1" d="M169.6,20.2v2.9h2.9v-2.9h2.1v7.6h-2.1v-3.2h-2.9v3.2h-2.1v-7.6H169.6z"/>
	<path class="st1" d="M178.8,23.1h1c1.2,0,2,0.2,2.6,0.6s0.8,0.9,0.8,1.7c0,0.8-0.3,1.4-0.8,1.8s-1.4,0.6-2.5,0.6h-3.2v-7.6h2.1
		V23.1z M181.1,25.4c0-0.3-0.1-0.5-0.4-0.6s-0.6-0.2-1.1-0.2h-0.9v1.8h1C180.7,26.4,181.1,26,181.1,25.4z M186.4,27.8h-2.1v-7.6h2.1
		V27.8z"/>
	<path class="st1" d="M190.6,20.2v3c0,0.3-0.1,1.1-0.2,2.3l3.5-5.4h2.5v7.6h-2v-3c0-0.5,0-1.3,0.1-2.3l-3.5,5.3h-2.5v-7.6H190.6z
		 M195.8,16.9c-0.1,0.9-0.4,1.5-1,1.9s-1.4,0.6-2.4,0.6c-1.1,0-1.9-0.2-2.4-0.6c-0.5-0.4-0.8-1-0.9-1.9h1.9c0,0.5,0.1,0.8,0.4,1
		c0.2,0.2,0.6,0.3,1.1,0.3c0.5,0,0.8-0.1,1-0.3c0.2-0.2,0.4-0.5,0.4-1H195.8z"/>
	<path class="st1" d="M72.6,42.8h-2.1v-8.2h-2.7v-1.8h7.5v1.8h-2.7V42.8z"/>
	<path class="st1" d="M80.1,42.9c-1.2,0-2.2-0.3-2.9-1s-1-1.6-1-2.9c0-1.3,0.3-2.3,1-3c0.6-0.7,1.5-1,2.7-1c1.1,0,1.9,0.3,2.5,0.9
		s0.9,1.5,0.9,2.5v1h-4.9c0,0.6,0.2,1.1,0.5,1.4s0.8,0.5,1.4,0.5c0.5,0,0.9,0,1.3-0.1s0.8-0.2,1.3-0.5v1.6c-0.4,0.2-0.8,0.3-1.2,0.4
		S80.7,42.9,80.1,42.9z M79.8,36.5c-0.4,0-0.8,0.1-1,0.4s-0.4,0.7-0.4,1.2h2.9c0-0.5-0.1-0.9-0.4-1.2S80.3,36.5,79.8,36.5z"/>
	<path class="st1" d="M86.4,38.9L84,35.2h2.4l1.5,2.4l1.5-2.4h2.4l-2.5,3.7l2.6,3.9h-2.4l-1.6-2.6l-1.6,2.6h-2.4L86.4,38.9z"/>
	<path class="st1" d="M95,35.2v2.9h2.9v-2.9h2.1v7.6h-2.1v-3.2H95v3.2h-2.1v-7.6H95z"/>
	<path class="st1" d="M104.1,35.2v3c0,0.3-0.1,1.1-0.2,2.3l3.5-5.4h2.5v7.6h-2v-3c0-0.5,0-1.3,0.1-2.3l-3.5,5.3h-2.5v-7.6H104.1z"/>
	<path class="st1" d="M113.9,35.2v2.8c0,0.7,0.3,1,0.9,1c0.4,0,0.8,0,1.1-0.1c0.3-0.1,0.7-0.2,1-0.4v-3.3h2.1v7.6H117v-3
		c-0.5,0.3-0.9,0.4-1.3,0.5s-0.8,0.2-1.2,0.2c-0.8,0-1.5-0.2-1.9-0.6s-0.7-1-0.7-1.8v-2.8H113.9z"/>
	<path class="st1" d="M124.7,42.9c-1.2,0-2.2-0.3-2.9-1s-1-1.6-1-2.9c0-1.3,0.3-2.3,1-3c0.6-0.7,1.5-1,2.7-1c1.1,0,1.9,0.3,2.5,0.9
		s0.9,1.5,0.9,2.5v1h-4.9c0,0.6,0.2,1.1,0.5,1.4s0.8,0.5,1.4,0.5c0.5,0,0.9,0,1.3-0.1s0.8-0.2,1.3-0.5v1.6c-0.4,0.2-0.8,0.3-1.2,0.4
		S125.3,42.9,124.7,42.9z M124.4,36.5c-0.4,0-0.8,0.1-1,0.4s-0.4,0.7-0.4,1.2h2.9c0-0.5-0.1-0.9-0.4-1.2S124.8,36.5,124.4,36.5z"/>
	<path class="st1" d="M132.5,42.9c-2.4,0-3.6-1.3-3.6-3.9c0-1.3,0.3-2.3,1-3s1.6-1,2.8-1c0.9,0,1.7,0.2,2.4,0.5l-0.6,1.6
		c-0.3-0.1-0.6-0.2-0.9-0.3s-0.6-0.1-0.8-0.1c-1.1,0-1.6,0.8-1.6,2.3c0,1.5,0.5,2.2,1.6,2.2c0.4,0,0.8-0.1,1.1-0.2s0.7-0.3,1-0.5
		v1.8c-0.3,0.2-0.7,0.4-1,0.4C133.5,42.9,133,42.9,132.5,42.9z"/>
	<path class="st1" d="M141.5,35.2h2.3l-3,3.7l3.3,4h-2.4l-3.1-3.9v3.9h-2.1v-7.6h2.1v3.7L141.5,35.2z"/>
	<path class="st1" d="M147.1,35.2v3c0,0.3-0.1,1.1-0.2,2.3l3.5-5.4h2.5v7.6h-2v-3c0-0.5,0-1.3,0.1-2.3l-3.5,5.3h-2.5v-7.6H147.1z"/>
	<path class="st1" d="M157.2,35.2v3c0,0.3-0.1,1.1-0.2,2.3l3.5-5.4h2.5v7.6h-2v-3c0-0.5,0-1.3,0.1-2.3l-3.5,5.3h-2.5v-7.6H157.2z
		 M162.4,31.9c-0.1,0.9-0.4,1.5-1,1.9s-1.4,0.6-2.4,0.6c-1.1,0-1.9-0.2-2.4-0.6c-0.5-0.4-0.8-1-0.9-1.9h1.9c0,0.5,0.1,0.8,0.4,1
		c0.2,0.2,0.6,0.3,1.1,0.3c0.5,0,0.8-0.1,1-0.3c0.2-0.2,0.4-0.5,0.4-1H162.4z"/>
	<path class="st1" d="M76.7,47.8l-3.1,7.1c-0.4,0.9-0.8,1.5-1.1,1.9c-0.3,0.4-0.7,0.7-1.2,0.9s-1,0.3-1.7,0.3
		c-0.6,0-1.1-0.1-1.6-0.2v-1.8c0.4,0.2,0.9,0.2,1.5,0.2c0.4,0,0.7-0.1,0.9-0.3s0.4-0.5,0.6-0.9l-3.5-7.2h2.2l2.5,5.6h0.1l0.1-0.3
		l2.1-5.2H76.7z"/>
	<path class="st1" d="M79.8,50.2v2.9h2.9v-2.9h2.1v7.6h-2.1v-3.2h-2.9v3.2h-2.1v-7.6H79.8z"/>
	<path class="st1" d="M88.9,50.2v3c0,0.3-0.1,1.1-0.2,2.3l3.5-5.4h2.5v7.6h-2v-3c0-0.5,0-1.3,0.1-2.3l-3.5,5.3h-2.5v-7.6H88.9z"/>
	<path class="st1" d="M104,52.2c0,0.4-0.1,0.8-0.4,1c-0.3,0.3-0.6,0.5-1.1,0.6v0.1c0.5,0.1,1,0.2,1.3,0.6c0.3,0.3,0.5,0.7,0.5,1.1
		c0,0.7-0.3,1.3-0.9,1.7s-1.4,0.6-2.5,0.6h-3.9v-7.6h3.9c1,0,1.8,0.2,2.4,0.5C103.7,51,104,51.5,104,52.2z M101.8,52.3
		c0-0.5-0.4-0.7-1.1-0.7H99v1.5h1.5c0.4,0,0.8-0.1,1-0.2S101.8,52.6,101.8,52.3z M102,55.4c0-0.3-0.1-0.5-0.3-0.7s-0.6-0.2-1-0.2H99
		v1.8h1.7c0.4,0,0.8-0.1,1-0.2C101.9,55.9,102,55.7,102,55.4z"/>
	<path class="st1" d="M109.2,57.9c-1.2,0-2.2-0.3-2.9-1s-1-1.6-1-2.9c0-1.3,0.3-2.3,1-3c0.6-0.7,1.5-1,2.7-1c1.1,0,1.9,0.3,2.5,0.9
		s0.9,1.5,0.9,2.5v1h-4.9c0,0.6,0.2,1.1,0.5,1.4s0.8,0.5,1.4,0.5c0.5,0,0.9,0,1.3-0.1s0.8-0.2,1.3-0.5v1.6c-0.4,0.2-0.8,0.3-1.2,0.4
		S109.8,57.9,109.2,57.9z M108.9,51.5c-0.4,0-0.8,0.1-1,0.4s-0.4,0.7-0.4,1.2h2.9c0-0.5-0.1-0.9-0.4-1.2S109.4,51.5,108.9,51.5z"/>
	<path class="st1" d="M118.2,57.9c-0.9,0-1.6-0.3-2.1-1H116c0.1,0.6,0.1,1,0.1,1.1v3.1H114v-11h1.7l0.3,1h0.1
		c0.5-0.8,1.2-1.1,2.2-1.1c0.9,0,1.6,0.3,2.1,1s0.8,1.7,0.8,2.9c0,0.8-0.1,1.5-0.4,2.1c-0.2,0.6-0.6,1.1-1,1.4
		S118.8,57.9,118.2,57.9z M117.6,51.7c-0.5,0-0.9,0.2-1.1,0.5s-0.4,0.8-0.4,1.6v0.2c0,0.8,0.1,1.4,0.4,1.8c0.2,0.4,0.6,0.5,1.2,0.5
		c0.9,0,1.4-0.8,1.4-2.3c0-0.8-0.1-1.3-0.3-1.7C118.4,51.9,118.1,51.7,117.6,51.7z"/>
	<path class="st1" d="M125.9,57.9c-2.4,0-3.6-1.3-3.6-3.9c0-1.3,0.3-2.3,1-3s1.6-1,2.8-1c0.9,0,1.7,0.2,2.4,0.5l-0.6,1.6
		c-0.3-0.1-0.6-0.2-0.9-0.3s-0.6-0.1-0.8-0.1c-1.1,0-1.6,0.8-1.6,2.3c0,1.5,0.5,2.2,1.6,2.2c0.4,0,0.8-0.1,1.1-0.2s0.7-0.3,1-0.5
		v1.8c-0.3,0.2-0.7,0.4-1,0.4C126.8,57.9,126.4,57.9,125.9,57.9z"/>
	<path class="st1" d="M131.9,50.2v3c0,0.3-0.1,1.1-0.2,2.3l3.5-5.4h2.5v7.6h-2v-3c0-0.5,0-1.3,0.1-2.3l-3.5,5.3h-2.5v-7.6H131.9z"/>
	<path class="st1" d="M146.2,50.2v1.6h-2.5v6.1h-2.1v-6.1h-2.5v-1.6H146.2z"/>
	<path class="st1" d="M151,57.9c-1.2,0-2.2-0.3-2.9-1s-1-1.6-1-2.9c0-1.3,0.3-2.3,1-3c0.6-0.7,1.5-1,2.7-1c1.1,0,1.9,0.3,2.5,0.9
		s0.9,1.5,0.9,2.5v1h-4.9c0,0.6,0.2,1.1,0.5,1.4s0.8,0.5,1.4,0.5c0.5,0,0.9,0,1.3-0.1s0.8-0.2,1.3-0.5v1.6c-0.4,0.2-0.8,0.3-1.2,0.4
		S151.6,57.9,151,57.9z M150.7,51.5c-0.4,0-0.8,0.1-1,0.4s-0.4,0.7-0.4,1.2h2.9c0-0.5-0.1-0.9-0.4-1.2S151.2,51.5,150.7,51.5z"/>
	<path class="st1" d="M162.1,50.2v1.6h-2.5v6.1h-2.1v-6.1H155v-1.6H162.1z"/>
</g>
<g>
	<path class="st1" d="M62.3,24.7c0,4.4,0,8.9,0,13.3c-0.1,0-0.1,0-0.2,0c-13.8,0-27.6,0-41.4,0c-0.3,0-0.6,0-0.9,0.1
		c-0.8,0.1-1.5,0.4-2.1,0.9c-0.9,0.6-1.5,1.5-1.9,2.5c-0.2,0.5-0.2,1.1-0.2,1.7c0,6,0,12,0,18c0,0.1,0,0.2,0,0.3
		c-4.5,0-8.9,0-13.3,0c0-0.1,0-0.2,0-0.2c0-5.9,0-11.8,0-17.6c0-0.7,0-1.4,0.1-2.1c0-0.6,0.1-1.2,0.2-1.8c0.2-0.9,0.5-1.9,0.8-2.8
		c0.3-0.8,0.6-1.5,1-2.3c0.6-1.1,1.3-2.2,2.1-3.2c0-0.1-0.1-0.1-0.1-0.2c-1.6-2-2.8-4.3-3.4-6.8c-0.3-1.2-0.5-2.4-0.6-3.7
		c0-1-0.1-2,0.1-3c0.1-0.6,0.1-1.2,0.3-1.8c0.2-0.9,0.5-1.9,0.8-2.8C6,6.9,11.5,2.7,17.4,1.6c1-0.2,2.1-0.3,3.1-0.3
		c13.9,0,27.9,0,41.8,0c0,4.4,0,8.9,0,13.3c-0.1,0-0.1,0-0.2,0c-13.8,0-27.6,0-41.4,0c-0.4,0-0.8,0-1.2,0.1
		c-1.9,0.5-3.1,1.7-3.7,3.6c-0.2,0.7-0.2,1.3-0.1,2c0.1,0.7,0.3,1.3,0.7,1.9c1,1.6,2.4,2.4,4.3,2.4C34.6,24.7,48.4,24.7,62.3,24.7z"
		/>
	<path class="st2" d="M62.3,48c-0.2,0.5-0.3,1-0.5,1.5c-2.3,5.9-7.3,10.1-13.4,11.4c-0.8,0.2-1.5,0.2-2.3,0.3
		c-0.5,0.1-1.1,0.1-1.6,0.1c-6.2,0-12.4,0-18.6,0c-0.1,0-0.2,0-0.3,0c0-4.5,0-8.9,0-13.3C37.9,48,50.1,48,62.3,48
		C62.3,48,62.3,48,62.3,48z"/>
</g>
</svg>
