<?xml version="1.0" encoding="utf-8"?>
<!-- Generator: Adobe Illustrator 25.2.1, SVG Export Plug-In . SVG Version: 6.00 Build 0)  -->
<svg version="1.1" id="Слой_1" xmlns="http://www.w3.org/2000/svg" xmlns:xlink="http://www.w3.org/1999/xlink" x="0px" y="0px"
	 viewBox="0 0 50 50" style="enable-background:new 0 0 50 50;" xml:space="preserve">
<style type="text/css">
	.st0{fill:url(#SVGID_1_);}
</style>
<linearGradient id="SVGID_1_" gradientUnits="userSpaceOnUse" x1="25.0063" y1="47.0134" x2="25.0063" y2="2.9961">
	<stop  offset="0" style="stop-color:#FB872B"/>
	<stop  offset="1" style="stop-color:#D9E021"/>
</linearGradient>
<path class="st0" d="M30.5,3l-0.7,4.1c-0.5,0.2-1.1,0.4-1.5,0.6l-3.4-2.4l-3.5,3.5l2.4,3.4c-0.3,0.5-0.5,1-0.7,1.6L19,14.5v4.9
	l4.1,0.7c0.2,0.5,0.4,1.1,0.7,1.6l-2.4,3.4l3.5,3.5l3.4-2.4c0.5,0.3,1,0.5,1.6,0.6l0.7,4.1h4.9l0.7-4.2c0.5-0.2,1.1-0.4,1.5-0.6
	l3.5,2.4l3.5-3.5l-2.5-3.4c0.3-0.5,0.5-1,0.6-1.5l4.2-0.7v-0.8v-4.1l-4.2-0.7c-0.2-0.5-0.4-1-0.6-1.5l2.4-3.5l-3.5-3.5l-3.4,2.5
	c-0.5-0.3-1-0.5-1.5-0.6L35.4,3H30.5z M21,3.3c-0.1,0-0.1,0-0.2,0c-4.8,0.7-8,2.9-10.1,5.8c-2,2.8-2.9,6.4-3.3,10l-4.1,7l0,0
	c-0.7,1.2-0.2,2.9,1,3.6l0,0l3.1,1.5l1,7.2l0,0c0.4,2.7,2.8,4.7,5.5,4.6l3.1,0v2v1v1h0.8c0.1,0,0.2,0,0.3,0H19v-1v-1v-4l-5.2,0h0
	c-1.7,0.1-3.2-1.2-3.4-2.9l0,0l-1.1-8.2l-3.9-2C5,27.7,4.9,27.4,5.1,27l4.2-7.3l0-0.2c0.4-3.5,1.2-6.8,3-9.3s4.5-4.3,8.8-5
	c0.5-0.1,0.9-0.6,0.8-1.1C21.9,3.6,21.5,3.3,21,3.3z M32.2,5h1.6l0.6,3.7L35,8.8c0.8,0.2,1.6,0.5,2.3,1l0.6,0.3l3-2.2L42,9.1
	l-2.1,3.1l0.3,0.6c0.4,0.7,0.7,1.5,1,2.3l0.2,0.6l3.7,0.6v1.6l-3.7,0.6L41.2,19c-0.2,0.8-0.5,1.6-0.9,2.3l-0.3,0.6l2.2,3L40.9,26
	l-3.1-2.1l-0.6,0.3c-0.7,0.4-1.5,0.8-2.3,1l-0.6,0.2L33.8,29h-1.6l-0.6-3.7L31,25.2c-0.8-0.2-1.6-0.5-2.3-1l-0.6-0.3l-3,2.1
	l-1.1-1.1l2.1-3l-0.3-0.6c-0.4-0.7-0.8-1.5-1-2.3l-0.2-0.6L21,17.8v-1.6l3.6-0.6l0.2-0.6c0.2-0.8,0.5-1.6,1-2.3l0.3-0.6L24,9
	l1.1-1.1l3,2.1l0.6-0.3C29.4,9.3,30.1,9,31,8.8l0.6-0.2L32.2,5z M33,12c-2.7,0-5,2.3-5,5s2.3,5,5,5s5-2.3,5-5S35.7,12,33,12z M33,14
	c1.7,0,3,1.3,3,3s-1.3,3-3,3c-1.7,0-3-1.3-3-3S31.3,14,33,14z M39,30.6c-0.3,0-0.6,0.2-0.8,0.4c-1.9,2.8-3.2,6-3.2,9.5V45h0v2h0.8
	c0.1,0,0.2,0,0.3,0H37v-0.8c0-0.1,0-0.1,0-0.2v-5.4c0-3,1.1-5.9,2.8-8.4c0.3-0.4,0.2-1.1-0.2-1.4C39.4,30.7,39.2,30.6,39,30.6z"/>
</svg>
