<?xml version="1.0" encoding="utf-8"?>
<!-- Generator: Adobe Illustrator 25.2.1, SVG Export Plug-In . SVG Version: 6.00 Build 0)  -->
<svg version="1.1" id="Слой_1" xmlns="http://www.w3.org/2000/svg" xmlns:xlink="http://www.w3.org/1999/xlink" x="0px" y="0px"
	 viewBox="0 0 475.1 475.1" style="enable-background:new 0 0 475.1 475.1;" xml:space="preserve">
<style type="text/css">
	.st0{fill:#13447E;}
</style>
<g>
	<path class="st0" d="M239.1,450.5c-118-0.5-215.3-98.8-214.5-216.7c0.9-118,99.5-215.1,217.3-213.8
		c117.2,1.2,213.5,98.5,213.3,215.5C455,353.3,356.9,451,239.1,450.5z M41.3,234.8C41,282.1,56.3,324,86,360.4
		c4.4,5.4,15,11.2,20.2,9.4c22.9-7.7,44.8-18.3,67.1-27.5c16-6.6,25.1-18.9,19.8-35c-6.3-19.5-17.6-37.2-25.5-56.3
		c-4.9-11.7-8.6-24.1-10.6-36.6c-1.7-10.3,1.7-21.4,0-31.7c-10.3-61.3,15.7-99.7,72.7-105.9c47.4-5.2,95.4,33,95.7,76.7
		c0.2,24.6-0.9,49.3-1.9,73.9c-0.2,5.3-2.1,10.9-4.7,15.5c-8.7,15.4-18.1,30.5-27.2,45.7c-13.3,22.1-7.4,43.4,16.2,54
		c18.5,8.3,38.8,13.2,56.3,23.2c15.5,8.9,23.1,4.2,32.5-8c53-68.2,56.4-163.4,7.5-234.8c-48.9-71.6-139.6-103.5-221.4-78
		C97.4,71.6,41.4,146.8,41.3,234.8z M111.5,385c73.1,64.6,192.3,63.9,255.7-0.5c-24.1-9.9-47.4-18.2-69.6-28.8
		c-31.9-15.1-38.2-48.5-18.7-78.1c11.5-17.4,20.7-37,27.4-56.7c3.8-11.4-1.2-25.5,0.8-37.9c8.5-52,0.9-66.6-47.3-86.5
		c-33.7-13.9-81.8,5.5-85,38.6c-4.5,47.2-6.7,95.5,22.1,138.3c27.6,41.2,17.8,69.8-29,88.6C150.1,369,132.3,376.5,111.5,385z"/>
</g>
</svg>
