<?xml version="1.0" encoding="utf-8"?>
<!-- Generator: Adobe Illustrator 25.2.1, SVG Export Plug-In . SVG Version: 6.00 Build 0)  -->
<svg version="1.1" id="Слой_1" xmlns="http://www.w3.org/2000/svg" xmlns:xlink="http://www.w3.org/1999/xlink" x="0px" y="0px"
	 viewBox="0 0 50 50" style="enable-background:new 0 0 50 50;" xml:space="preserve">
<style type="text/css">
	.st0{fill:url(#SVGID_1_);}
</style>
<linearGradient id="SVGID_1_" gradientUnits="userSpaceOnUse" x1="25" y1="48" x2="25" y2="1">
	<stop  offset="0" style="stop-color:#C822FF"/>
	<stop  offset="1" style="stop-color:#1A6DFF"/>
</linearGradient>
<path class="st0" d="M19,1c-1.1,0-2,0.9-2,2H9C7.4,3,6,4.4,6,6v39c0,1.6,1.4,3,3,3h32c1.6,0,3-1.4,3-3V6c0-1.6-1.4-3-3-3h-8
	c0-1.1-0.9-2-2-2H19z M19,3h12v4c0,0.6-0.4,1-1,1H20c-0.6,0-1-0.4-1-1V3z M9,5h8v2h-6v36h28V7h-6V5h8c0.6,0,1,0.4,1,1v39
	c0,0.6-0.4,1-1,1H9c-0.6,0-1-0.4-1-1V6C8,5.4,8.4,5,9,5z M13,9h4.8c0.6,0.6,1.3,1,2.2,1h10c0.9,0,1.7-0.4,2.2-1H37v32H13V9z
	 M25.5,14c-2.7,0-3.7,2-2.9,3.7c-0.1,0.1-0.3,0.4-0.3,0.6c0,0.5,0.4,0.7,0.5,0.8c0.1,0.6,0.4,1.1,0.8,1.4v1.2
	C23.1,22.8,20,22.5,20,25h10c0-2.5-3.1-2.2-3.6-3.5v-1.2c0.4-0.3,0.6-0.9,0.6-1.4c0.2-0.1,0.4-0.3,0.5-0.7c0.1-0.3-0.1-0.6-0.2-0.8
	c0.5-0.7,0.4-3-1.5-3L25.5,14z M17,29v2h16v-2H17z M17,34v2h13v-2H17z"/>
</svg>
