<?xml version="1.0" encoding="utf-8"?>
<!-- Generator: Adobe Illustrator 25.2.1, SVG Export Plug-In . SVG Version: 6.00 Build 0)  -->
<svg version="1.1" id="Слой_1" xmlns="http://www.w3.org/2000/svg" xmlns:xlink="http://www.w3.org/1999/xlink" x="0px" y="0px"
	 viewBox="0 0 50 50" style="enable-background:new 0 0 50 50;" xml:space="preserve">
<style type="text/css">
	.st0{fill:url(#SVGID_1_);}
</style>
<linearGradient id="SVGID_1_" gradientUnits="userSpaceOnUse" x1="25" y1="9" x2="25" y2="40.8125">
	<stop  offset="0" style="stop-color:#FFE29F"/>
	<stop  offset="1" style="stop-color:#FF719A"/>
</linearGradient>
<path class="st0" d="M19,9c-1.6,0-3,1.4-3,3v6H3c-1.6,0-3,1.4-3,3v18.8c0,0.6,0.4,1,1,1h48c0.6,0,1-0.4,1-1V25c0-1.6-1.4-3-3-3H34
	V12c0-1.6-1.4-3-3-3H19z M19,11h12c0.6,0,1,0.4,1,1v11c0,0.6,0.4,1,1,1h14c0.6,0,1,0.4,1,1v13.8H2V21c0-0.6,0.4-1,1-1h14
	c0.6,0,1-0.4,1-1v-7C18,11.4,18.4,11,19,11z M24.8,14c-0.1,0.5-0.3,0.8-0.6,1s-0.8,0.3-1.3,0.3h-0.1v1.1h1.6V22H26v-8H24.8z M9.5,23
	c-0.9,0-1.5,0.2-1.9,0.6C7.2,24,7,24.5,7,25.3v0.3h1.6V25c0-0.2,0-0.4,0.1-0.5L9,24.2c0.1-0.1,0.3-0.1,0.5-0.1c0.5,0,0.8,0.3,0.8,1
	v0.6c0,0.1,0,0.3-0.1,0.4c-0.1,0.1-0.2,0.3-0.3,0.4l-0.4,0.4l-0.7,0.6C8.5,27.8,8.2,28,8,28.3c-0.3,0.2-0.5,0.5-0.6,0.8L7.1,30
	C7,30.3,7,30.6,7,31h5v-1.3H9c0-0.1,0.1-0.3,0.1-0.5l2.1-2.1c0.2-0.2,0.3-0.4,0.4-0.6c0.1-0.2,0.2-0.4,0.2-0.6
	c0.1-0.2,0.1-0.4,0.1-0.7c0-0.7-0.2-1.2-0.6-1.6C10.9,23.2,10.3,23,9.5,23z M40.6,27c-0.7,0-1.3,0.2-1.7,0.6s-0.6,1-0.6,1.8h1.5
	v-0.5c0-0.1,0-0.3,0.1-0.4l0.3-0.3c0.1-0.1,0.2-0.1,0.4-0.1c0.3,0,0.5,0,0.6,0.2c0.1,0.1,0.2,0.4,0.2,0.8c0,0.2-0.1,0.3-0.1,0.5
	c-0.1,0.2-0.1,0.3-0.2,0.4l-0.3,0.3c-0.1,0.1-0.2,0.1-0.4,0.1h-0.5v1.1h0.5c0.2,0,0.4,0,0.5,0.1l0.3,0.3c0.1,0.1,0.2,0.2,0.2,0.4v1
	c0,0.1,0,0.3-0.1,0.4L41,34c-0.1,0.1-0.3,0.1-0.5,0.1c-0.3,0-0.6-0.2-0.7-0.4c-0.1-0.3-0.2-0.6,0-0.9h-1.6c0,0.8,0.2,1.4,0.6,1.8
	c0.3,0.4,0.9,0.6,1.7,0.6c0.5,0,1-0.1,1.3-0.2c0.3-0.2,0.6-0.4,0.8-0.6c0.2-0.3,0.3-0.5,0.4-0.8s0.1-0.5,0.1-0.8
	c0-0.5-0.1-1-0.3-1.3s-0.6-0.5-1.1-0.6c0.4-0.1,0.7-0.3,0.9-0.6s0.3-0.7,0.3-1.2c0-0.8-0.2-1.3-0.6-1.6S41.3,27,40.6,27z"/>
</svg>
