<?xml version="1.0" encoding="utf-8"?>
<!-- Generator: Adobe Illustrator 25.2.1, SVG Export Plug-In . SVG Version: 6.00 Build 0)  -->
<svg version="1.1" id="Слой_1" xmlns="http://www.w3.org/2000/svg" xmlns:xlink="http://www.w3.org/1999/xlink" x="0px" y="0px"
	 viewBox="0 0 50 50" style="enable-background:new 0 0 50 50;" xml:space="preserve">
<style type="text/css">
	.st0{fill:url(#SVGID_1_);}
</style>
<linearGradient id="SVGID_1_" gradientUnits="userSpaceOnUse" x1="23.9932" y1="4" x2="23.9932" y2="46">
	<stop  offset="0" style="stop-color:#2AF598"/>
	<stop  offset="1" style="stop-color:#009EFD"/>
</linearGradient>
<path class="st0" d="M11,4C9.4,4,8,5.4,8,7v5H7c-0.4,0-0.7,0.2-0.9,0.5c-0.2,0.3-0.2,0.7,0,1C6.3,13.8,6.6,14,7,14h4
	c0.4,0,0.7-0.2,0.9-0.5c0.2-0.3,0.2-0.7,0-1C11.7,12.2,11.4,12,11,12h-1V7c0-0.6,0.4-1,1-1h28c0.6,0,1,0.4,1,1v36c0,0.6-0.4,1-1,1
	H11c-0.6,0-1-0.4-1-1v-4H8v4c0,1.6,1.4,3,3,3h28c1.6,0,3-1.4,3-3V7c0-1.6-1.4-3-3-3H11z M17,12c-0.6,0-1,0.4-1,1v12c0,0.6,0.4,1,1,1
	h18c0.6,0,1-0.4,1-1V13c0-0.6-0.4-1-1-1H17z M18,14h16v10H18V14z M8,15v3H7c-0.4,0-0.7,0.2-0.9,0.5c-0.2,0.3-0.2,0.7,0,1
	C6.3,19.8,6.6,20,7,20h4c0.4,0,0.7-0.2,0.9-0.5c0.2-0.3,0.2-0.7,0-1C11.7,18.2,11.4,18,11,18h-1v-3H8z M20,16v2h12v-2H20z M20,20v2
	h12v-2H20z M8,21v3H7c-0.4,0-0.7,0.2-0.9,0.5c-0.2,0.3-0.2,0.7,0,1C6.3,25.8,6.6,26,7,26h4c0.4,0,0.7-0.2,0.9-0.5
	c0.2-0.3,0.2-0.7,0-1C11.7,24.2,11.4,24,11,24h-1v-3H8z M8,27v3H7c-0.4,0-0.7,0.2-0.9,0.5c-0.2,0.3-0.2,0.7,0,1
	C6.3,31.8,6.6,32,7,32h4c0.4,0,0.7-0.2,0.9-0.5c0.2-0.3,0.2-0.7,0-1C11.7,30.2,11.4,30,11,30h-1v-3H8z M8,33v3H7
	c-0.4,0-0.7,0.2-0.9,0.5c-0.2,0.3-0.2,0.7,0,1C6.3,37.8,6.6,38,7,38h4c0.4,0,0.7-0.2,0.9-0.5c0.2-0.3,0.2-0.7,0-1
	C11.7,36.2,11.4,36,11,36h-1v-3H8z"/>
</svg>
