<?xml version="1.0" encoding="utf-8"?>
<!-- Generator: Adobe Illustrator 25.2.1, SVG Export Plug-In . SVG Version: 6.00 Build 0)  -->
<svg version="1.1" id="Слой_1" xmlns="http://www.w3.org/2000/svg" xmlns:xlink="http://www.w3.org/1999/xlink" x="0px" y="0px"
	 viewBox="0 0 50 50" style="enable-background:new 0 0 50 50;" xml:space="preserve">
<style type="text/css">
	.st0{fill:url(#SVGID_1_);}
</style>
<linearGradient id="SVGID_1_" gradientUnits="userSpaceOnUse" x1="26" y1="49.707" x2="26" y2="2">
	<stop  offset="0" style="stop-color:#0072FF"/>
	<stop  offset="1" style="stop-color:#00C6FF"/>
</linearGradient>
<path class="st0" d="M20,2c-1.6,0-3,1.4-3,3v2H4.9C3.3,7,2,8.3,2,9.9v30.2C2,41.7,3.3,43,4.9,43h23.8l0.9-0.9
	c-0.2-0.4-0.4-0.7-0.6-1.1H4.9C4.4,41,4,40.6,4,40.1V27.8C4.3,27.9,4.6,28,4.9,28h26.2c0.7-0.8,1.5-1.4,2.3-2H4.9
	C4.4,26,4,25.6,4,25V9.9C4,9.4,4.4,9,4.9,9h12.9c0.1,0,0.2,0,0.3,0h13.7c0.1,0,0.2,0,0.3,0h12.9C45.6,9,46,9.4,46,9.9v15.7
	c0.7,0.4,1.4,0.9,2,1.5V9.9C48,8.3,46.7,7,45.1,7H33V5c0-1.6-1.4-3-3-3H20z M20,4h10c0.6,0,1,0.4,1,1v2H19V5C19,4.4,19.4,4,20,4z
	 M25,20c-1.1,0-2,0.9-2,2s0.9,2,2,2s2-0.9,2-2S26.1,20,25,20z M40,26c-5.5,0-10,4.5-10,10c0,2.4,0.9,4.6,2.3,6.3l-6,6l1.4,1.4l6-6
	c1.7,1.4,3.9,2.3,6.3,2.3c5.5,0,10-4.5,10-10S45.5,26,40,26z M40,28c4.4,0,8,3.6,8,8s-3.6,8-8,8s-8-3.6-8-8S35.6,28,40,28z"/>
</svg>
